<svg xmlns="http://www.w3.org/2000/svg" width="72" height="67" viewBox="0 0 72 67"><path fill="#e6b673" d="M63.69 22.73l8.05-9.31c.22-.25.3-.63.22-1.01a1.2 1.2 0 0 0-.62-.82L45.92.1a1.15 1.15 0 0 0-.58-.09c-.31.02-.58.15-.79.37L35.98 9.5 27.41.37a1.2 1.2 0 0 0-.87-.36h-.1c-.14.01-.28.04-.41.09L.63 11.59c-.38.17-.53.53-.58.73-.1.39-.03.82.19 1.12l8.03 9.29-8.06 9.3c-.19.27-.25.72-.14 1.11.05.19.2.55.56.71l8.03 3.64v16.85c0 .45.29.88.7 1.06l26.12 11.49c.15.07.31.1.48.1.16 0 .33-.03.48-.1L62.6 55.4c.41-.18.7-.62.7-1.06V37.49l8.03-3.64c.31-.14.54-.45.63-.82.08-.38 0-.76-.22-1.01zM37.16 37.2l7.39 7.87c.33.36.92.48 1.37.27l15.02-6.8v15.04L37.16 64.01zm.81-26.39l7.72-8.23 23.23 10.51-7.13 8.22zm23.82 13.32l7.13 8.22-23.23 10.51-7.72-8.23zm-2.58-1.4l-23.23 10.2-23.23-10.2 23.23-10.22zM3.04 13.09L26.27 2.58l7.72 8.23-23.82 10.5zm30.95 21.54l-7.72 8.23L3.04 32.35l7.13-8.22zm-22.97 3.91l15.02 6.8c.45.21 1.03.09 1.37-.27l7.39-7.87v26.83L11.02 53.58z"/></svg>