<svg xmlns="http://www.w3.org/2000/svg" width="78" height="73" viewBox="0 0 78 73"><path fill="#ffb95a" d="M46.56 16.21a3.64 3.64 0 0 0 3.64-3.67 3.65 3.65 0 0 0-7.28 0 3.64 3.64 0 0 0 3.64 3.67zm0-5.31c.91 0 1.62.72 1.62 1.64 0 .92-.7 1.63-1.62 1.63a1.6 1.6 0 0 1-1.62-1.63c0-.92.71-1.64 1.62-1.64zm-4.85 13.38a3.43 3.43 0 0 0 3.44-3.47 3.43 3.43 0 0 0-3.44-3.47 3.42 3.42 0 0 0-3.44 3.47 3.49 3.49 0 0 0 3.44 3.47zm0-5c.8 0 1.41.61 1.41 1.43 0 .81-.6 1.43-1.41 1.43a1.4 1.4 0 0 1-1.42-1.43c0-.82.71-1.43 1.42-1.43zm15.77 3.06c.7 0 1.42-.2 2.02-.82a3.07 3.07 0 0 0 .2-4.28 3 3 0 0 0-4.24-.21 3.3 3.3 0 0 0-1.01 2.04c-.1.72.2 1.64.7 2.15.71.71 1.52 1.12 2.33 1.12zm-.6-3.78c.2-.2.4-.2.6-.2.3 0 .5.1.7.31.41.4.31 1.02-.1 1.42-.4.41-1 .31-1.4-.1-.21-.2-.31-.41-.21-.71.1-.31.2-.61.4-.72zm18 8.38c.3-.41.5-1.03.4-1.54-.1-2.24-1.12-6.84-6.07-12.55-5.06-5.72-9.5-7.25-11.63-7.66-.4-.11-.7 0-1 0a2.3 2.3 0 0 0-.82-1.33C54.04 2.43 50 .18 42.42.18c-7.59 0-11.63 2.35-13.45 3.68a2.27 2.27 0 0 0-.7 2.86l1.61 3.78 10.11 24.71c0 .1.1.2.2.3-.2-.1-.5-.1-.8-.1l-26.6 2.25-4.04.3a2.49 2.49 0 0 0-2.23 2.05c-.4 2.24-.5 6.94 3.14 13.58 3.54 6.74 7.58 9.19 9.6 10.1.3.11.61.21 1.01.21h.1c0 .51.2 1.02.51 1.53 1.42 1.74 4.75 5 12.13 6.74 2.63.61 4.86.82 6.78.82 3.44 0 5.76-.72 7.07-1.33.3-.1.61-.41.81-.61.4.3.91.61 1.42.61h.6c2.43 0 6.78-.72 12.34-4.7 6.17-4.39 8.19-8.68 8.9-10.82.1-.31.1-.72.1-1.02.5-.1 1.01-.31 1.41-.72 1.62-1.63 4.35-5.41 5.16-12.96.91-7.56-.9-11.95-2.12-13.89-.1-.1-.3-.41-.6-.61zM45.44 65.53c0 .1 0 .21-.1.31-1.21.61-4.85 1.74-10.92.31s-8.7-4.09-9.6-5.21c-.1-.1-.1-.21 0-.31L33 49.5l7.79-9.7 2.53 12.36zm9.5-54.32c0-.1.1-.1.2-.1 1.32.2 4.96 1.33 9.2 6.13 4.15 4.69 4.76 8.47 4.86 9.8 0 .1-.1.2-.2.2l-13.04 4.29-11.83 3.37 4.95-11.54zM41.91 36.64l.1.1v.2c-.1 0-.1 0-.2.1-.1 0-.1 0-.2-.1 0-.1 0-.2-.1-.3l-.1-.11c.2.11.3.11.5.11zm6.17 28.79l-2.73-13.58-2.02-12.25 10.81 6.33 11.33 7.25c.1.1.1.2.1.3-.4 1.33-1.92 4.8-7.08 8.48-5.15 3.57-8.8 3.78-10.2 3.78-.11-.21-.21-.21-.21-.31zm19-14.4l-11.82-6.94-10.42-6.64 11.83-3.98 12.84-3.68h.1c.1 0 .2 0 .2.11.71 1.22 2.33 4.69 1.62 10.92-.7 6.23-3.03 9.19-4.04 10.21-.1.11-.2.11-.3 0zm-9.9-43.8c1.62.31 5.76 1.53 10.51 6.94 4.55 5.21 5.46 9.29 5.56 11.34 0 .2-.1.3-.3.4l-1.72.52c-.2-2.05-1.21-5.93-5.36-10.73-4.14-4.8-7.98-6.22-10-6.63l.7-1.64c.2-.1.4-.2.6-.2zM30.08 5.6c1.52-1.23 5.26-3.27 12.13-3.27 6.88 0 10.52 2.04 12.04 3.27.1.1.2.3.1.51l-.71 1.63c-1.72-1.23-5.16-3.06-11.43-3.06-6.26 0-9.9 1.83-11.52 3.06l-.7-1.63c-.11-.21 0-.41.1-.51zm1.52 4.18c0-.1 0-.2.1-.3 1.11-.82 4.35-2.86 10.62-2.86 6.26 0 9.4 1.94 10.51 2.86.1.1.1.2.1.3l-5.56 12.77-5.66 11.84zm7.78 27.77c-.1.11-.2.11-.2.21L31.5 48.17l-8.4 10.52c-.1.1-.2.1-.3.1-1.31-.61-4.55-2.55-7.58-8.06-2.93-5.52-2.73-9.29-2.53-10.72 0-.11.1-.21.2-.21zm-19.3 24.51c-1.42-.61-5.26-2.86-8.7-9.29-3.24-6.13-3.24-10.31-2.83-12.25 0-.21.2-.31.4-.31l1.82-.1c-.3 2.04-.2 6.12 2.73 11.64 3.03 5.61 6.27 7.86 8.2 8.78l-1.12 1.43c-.2.1-.4.2-.5.1zm25.88 7.86c-1.82.82-5.87 1.94-12.64.41-6.78-1.63-9.81-4.49-11.02-6.02-.1-.1-.1-.31 0-.51l1.1-1.43c1.32 1.63 4.36 4.18 10.42 5.61 2.33.51 4.25.72 5.97.72 2.83 0 4.75-.61 5.96-1.12l.3 1.83c.2.31.1.51-.1.51zm14.96-4.49c-5.66 3.98-9.8 4.39-11.73 4.29-.2 0-.3-.1-.4-.31l-.3-1.73h.2c2.12 0 5.96-.62 10.92-4.09 5.15-3.67 7.07-7.25 7.68-9.19l1.52.92c.2.1.2.31.2.51-.5 1.74-2.33 5.62-8.1 9.6zm14.76-24.1c-.8 6.95-3.24 10.32-4.65 11.75-.1.1-.3.2-.5.1L69 52.26c1.41-1.53 3.64-4.9 4.35-11.13.7-6.33-.71-10.11-1.72-11.95l1.72-.51c.2 0 .4 0 .5.21.8 1.32 2.63 5.31 1.82 12.45zm-10.21-.51a3.83 3.83 0 0 0-2.63.72 3.68 3.68 0 0 0-1.32 2.45c-.1 1.02.2 1.94.71 2.65a3.6 3.6 0 0 0 2.43 1.33h.4a3.67 3.67 0 0 0 3.54-3.27c.3-1.84-1.1-3.57-3.13-3.88zm1.21 3.88c0 .41-.3.82-.6 1.02-.3.31-.71.41-1.12.31-.4 0-.8-.31-1-.61-.31-.31-.41-.72-.31-1.13.1-.81.8-1.43 1.51-1.43h.2c.82.11 1.42.92 1.32 1.84zm.3-12.86a3.04 3.04 0 0 0-3.33 2.65 3.06 3.06 0 0 0 2.63 3.37h.3a2.89 2.89 0 0 0 2.93-2.65 2.91 2.91 0 0 0-2.53-3.37zm-.5 4.08a1.1 1.1 0 0 1-.91-1.12c0-.61.5-.92 1.11-.92.5.1.91.51.91 1.12-.1.51-.6.92-1.11.92zM50.91 53.48c.7 0 1.42-.2 2.02-.61a3.57 3.57 0 0 0 .81-4.9 3.5 3.5 0 0 0-4.85-.82 3.57 3.57 0 0 0-.81 4.9c.5.82 1.31 1.33 2.22 1.43h.61zm-1.21-2.65c-.5-.61-.3-1.53.3-2.04.2-.21.5-.31.8-.31.51 0 .92.2 1.22.61.5.62.3 1.53-.4 2.05-.5.51-1.42.4-1.92-.31zm-10.32 6.23c-.8-.21-1.61-.1-2.22.41a3.05 3.05 0 0 0 .9 5.51c.21.1.51.1.72.1.5 0 1.1-.2 1.62-.41.7-.4 1.1-1.12 1.3-1.83.21-.82.11-1.64-.4-2.25-.5-.92-1.2-1.43-1.92-1.53zm.2 3.16c-.1.31-.2.51-.4.62-.2.1-.5.2-.7.1-.3-.1-.51-.21-.61-.41-.1-.2-.2-.51-.1-.72.1-.3.2-.51.4-.61.2-.1.3-.1.5-.1h.2c.31.1.51.2.61.41.1.2.2.41.1.71zM17.25 47.56c.3.1.71.21 1.01.21.61 0 1.22-.11 1.72-.41a3.58 3.58 0 0 0 1.42-4.9 3.98 3.98 0 0 0-2.13-1.74 3.2 3.2 0 0 0-2.73.31 3.98 3.98 0 0 0-1.71 2.14c-.3.92-.2 1.94.3 2.76.5.71 1.21 1.43 2.12 1.63zm-.4-3.88c.1-.41.4-.71.8-.92.41-.2.82-.2 1.22-.1s.7.41.91.82c.4.81.1 1.73-.6 2.14-.82.41-1.73.1-2.13-.61-.3-.51-.4-.92-.2-1.33zm10.92 4.29a3.46 3.46 0 0 0 3.03-5.11 3.39 3.39 0 0 0-4.65-1.42 3.45 3.45 0 0 0-1.42 4.69 3.32 3.32 0 0 0 3.04 1.84zm-.71-4.8c.7-.41 1.62-.1 1.92.61.4.72.1 1.64-.6 1.94-.71.41-1.62.11-1.93-.61-.3-.61-.1-1.53.6-1.94zm5.56-11.03h.2c.81 0 1.52-.4 1.92-1.12.4-.82.4-1.74-.2-2.55L18.25 7.23l-2.42-3.27C15.12 3.04 14 2.74 13 3.25c-2.03.92-5.97 3.37-9.6 10C-.26 19.89-.16 24.69.15 26.94a2.37 2.37 0 0 0 2.12 2.04l4.04.3zm.4-2.14c0 .1-.1.1-.2.1L6.53 27.24c-.1 0-.2-.1-.2-.2-.2-1.43-.41-5.21 2.62-10.72 3.04-5.52 6.27-7.36 7.48-7.97h.1c.1 0 .1 0 .2.1l16.39 21.24c0 .1 0 .21-.1.31zM2.08 26.63C1.78 25 1.58 20.61 5 14.27c3.34-6.12 6.87-8.37 8.6-9.08.2-.11.4 0 .5.1l1.11 1.43c-1.82.82-5.05 3.06-8.09 8.68C4.1 21.01 4 25 4.3 27.14l-1.82-.2c-.2 0-.3-.21-.4-.31zm12.94-14.81c-.91.31-1.72.92-2.13 1.74a3.3 3.3 0 0 0-.3 2.76c.3.92.91 1.73 1.72 2.14.5.31 1.11.41 1.72.41 1.31 0 2.53-.72 3.13-1.94.91-1.74.3-3.98-1.41-4.9a4.94 4.94 0 0 0-2.73-.21zm1.82 2.15c.8.41 1 1.43.6 2.14a1.52 1.52 0 0 1-2.12.61c-.4-.2-.6-.51-.7-.91-.1-.41-.1-.82.1-1.23.2-.41.5-.61.9-.71.1 0 .3-.11.4-.11.31 0 .51.11.82.21zm.2 8.58a2.97 2.97 0 0 0 1.21 4.08c.4.2.91.41 1.42.41.3 0 .6 0 .8-.1a2.9 2.9 0 0 0 1.83-1.43c.8-1.43.3-3.27-1.22-4.09a2.86 2.86 0 0 0-4.04 1.13zm3.03.61c.5.3.61.81.4 1.33-.1.2-.3.4-.6.51-.2.1-.5 0-.7-.11-.51-.3-.61-.81-.41-1.32.2-.31.5-.51.9-.51.11 0 .31 0 .41.1zm-8.7-2.86c-.2-.51-.8-.72-1.3-.51-.51.2-.71.82-.51 1.33l1.21 2.55c.2.41.5.61.91.61.1 0 .3 0 .4-.1.51-.21.71-.82.51-1.33zm27.81-5.62l-1.21-2.55c-.2-.51-.81-.71-1.32-.51-.5.2-.7.82-.5 1.33l1.21 2.55c.2.41.5.61.91.61.1 0 .3 0 .4-.1.51-.2.82-.82.51-1.33zm15.98 13.58c.2.41.5.62.9.62.1 0 .3 0 .41-.11.5-.2.7-.81.5-1.32l-1.2-2.56c-.21-.51-.82-.71-1.32-.51-.5.21-.7.82-.5 1.33zM31.5 58.28c-.2-.51-.81-.71-1.32-.51-.5.21-.7.82-.5 1.33l1.21 2.55c.2.41.5.62.91.62.1 0 .3 0 .4-.11.51-.2.71-.81.51-1.32zm21.94.21l-2.83-.51c-.61-.11-1.12.3-1.22.81-.1.51.3 1.13.81 1.23l2.83.51h.2c.51 0 .92-.31 1.02-.82.2-.61-.2-1.12-.81-1.22zm4.65-18.99l-2.83-.52c-.5-.1-1.12.31-1.22.82-.1.51.3 1.12.81 1.23l2.83.51h.2c.51 0 .92-.31 1.02-.82.1-.61-.3-1.12-.81-1.22zM61.83 25l2.83.51h.2c.5 0 .91-.31 1.01-.82.1-.51-.3-1.12-.8-1.23l-2.84-.51c-.6-.1-1.1.31-1.21.82-.1.61.3 1.12.8 1.23zM37.36 52.67c.2.41.5.61.91.61.1 0 .3 0 .4-.1.51-.21.71-.82.51-1.33l-1.21-2.55c-.2-.51-.81-.72-1.32-.51-.5.2-.7.81-.5 1.32zm-17.59 1.02c.2.2.5.41.8.41.21 0 .41-.11.62-.21l2.22-1.84a1 1 0 0 0 .1-1.43c-.3-.4-1.01-.51-1.42-.1l-2.22 1.84c-.4.2-.5.92-.1 1.33zm27.9-21.65c.2.21.51.41.81.41.2 0 .4-.1.61-.2l2.22-1.84c.4-.31.51-1.02.1-1.43-.3-.41-1-.51-1.41-.1l-2.22 1.83c-.4.31-.51.92-.1 1.33zm9.81 25.02c.2 0 .4-.1.6-.21l2.23-1.83c.4-.31.5-1.03.1-1.43-.3-.41-1-.51-1.41-.11l-2.13 1.74c-.4.31-.5 1.02-.1 1.43.1.31.4.41.71.41z"/></svg>